<svg xmlns="http://www.w3.org/2000/svg" width="24" height="24" viewBox="0 0 24 24">
    <path d="M10.6155 20.2749C10.6155 20.1796 10.5968 20.0853 10.5603 19.9973C10.5239 19.9093 10.4704 19.8293 10.4031 19.762C10.3357 19.6946 10.2557 19.6412 10.1677 19.6048C10.0797 19.5683 9.9854 19.5496 9.89015 19.5496H5.47879L10.403 14.6252C10.5382 14.489 10.614 14.3048 10.6136 14.1129C10.6133 13.9209 10.5369 13.737 10.4012 13.6013C10.2655 13.4656 10.0815 13.3892 9.88961 13.3889C9.6977 13.3886 9.51348 13.4643 9.37732 13.5996L4.4507 18.5264L4.4507 14.11C4.45035 13.9179 4.37377 13.7337 4.23778 13.598C4.10179 13.4622 3.9175 13.386 3.72535 13.386C3.53321 13.386 3.34891 13.4622 3.21292 13.598C3.07693 13.7337 3.00035 13.9179 3 14.11L3 20.2749C3.00057 20.4675 3.07753 20.6521 3.21401 20.788C3.35048 20.924 3.53531 21.0003 3.72796 21.0001H9.89016C9.98541 21.0001 10.0797 20.9814 10.1677 20.945C10.2557 20.9085 10.3357 20.8551 10.4031 20.7877C10.4704 20.7204 10.5239 20.6404 10.5603 20.5524C10.5968 20.4644 10.6155 20.3701 10.6155 20.2749Z"/>
    <path d="M13.3871 3.72527C13.3871 3.82052 13.4059 3.91484 13.4423 4.00284C13.4788 4.09085 13.5322 4.17081 13.5996 4.23816C13.6669 4.30551 13.7469 4.35893 13.8349 4.39537C13.9229 4.43181 14.0172 4.45055 14.1125 4.45053L18.5262 4.45054L13.5996 9.37732C13.5319 9.44459 13.4782 9.52456 13.4414 9.61264C13.4047 9.70073 13.3857 9.7952 13.3856 9.89063C13.3854 9.98607 13.4041 10.0806 13.4406 10.1688C13.477 10.257 13.5305 10.3371 13.598 10.4046C13.6655 10.4721 13.7456 10.5256 13.8339 10.562C13.9221 10.5985 14.0166 10.6172 14.112 10.617C14.2075 10.6168 14.3019 10.5979 14.39 10.5611C14.4781 10.5244 14.5581 10.4706 14.6253 10.4029L19.5493 5.47867L19.5493 9.89012C19.5497 10.0823 19.6262 10.2664 19.7622 10.4022C19.8982 10.5379 20.0825 10.6141 20.2747 10.6141C20.4668 10.6141 20.6511 10.5379 20.7871 10.4022C20.9231 10.2664 20.9997 10.0823 21 9.89012V3.72527C21 3.63001 20.9813 3.53569 20.9448 3.44769C20.9084 3.35969 20.8549 3.27973 20.7876 3.21238C20.7202 3.14503 20.6403 3.09161 20.5523 3.05517C20.4642 3.01873 20.3699 2.99998 20.2747 3L14.1125 3C14.0172 2.99998 13.9229 3.01873 13.8349 3.05517C13.7469 3.09161 13.6669 3.14503 13.5996 3.21238C13.5322 3.27973 13.4788 3.35969 13.4423 3.44769C13.4059 3.53569 13.3871 3.63001 13.3871 3.72527Z"/>
</svg>