<svg xmlns="http://www.w3.org/2000/svg" width="24" height="24" viewBox="0 0 24 24">
    <path d="M3 14.1113C2.99999 14.2065 3.01875 14.3008 3.0552 14.3888C3.09165 14.4768 3.14508 14.5568 3.21244 14.6241C3.2798 14.6915 3.35976 14.7449 3.44777 14.7814C3.53578 14.8178 3.6301 14.8365 3.72535 14.8365H8.13671L3.21249 19.7609C3.07727 19.8971 3.00154 20.0813 3.00188 20.2733C3.00222 20.4652 3.07861 20.6491 3.21432 20.7848C3.35003 20.9205 3.53399 20.9969 3.7259 20.9972C3.91781 20.9975 4.10202 20.9218 4.23819 20.7865L9.1648 15.8597V20.2761C9.16515 20.4683 9.24173 20.6524 9.37772 20.7881C9.51371 20.9239 9.69801 21.0001 9.89015 21.0001C10.0823 21.0001 10.2666 20.9239 10.4026 20.7881C10.5386 20.6524 10.6152 20.4683 10.6155 20.2761V14.1113C10.6149 13.9186 10.538 13.7341 10.4015 13.5981C10.265 13.4621 10.0802 13.3858 9.88755 13.386H3.72534C3.63009 13.386 3.53577 13.4047 3.44776 13.4412C3.35975 13.4776 3.27979 13.531 3.21243 13.5984C3.14508 13.6657 3.09165 13.7457 3.0552 13.8337C3.01875 13.9217 2.99999 14.016 3 14.1113Z"/>
    <path d="M20.9985 9.89174C20.9985 9.79648 20.9797 9.70216 20.9433 9.61416C20.9068 9.52616 20.8534 9.4462 20.786 9.37885C20.7187 9.3115 20.6387 9.25808 20.5507 9.22164C20.4627 9.1852 20.3684 9.16645 20.2731 9.16647L15.8594 9.16647L20.786 4.23969C20.8537 4.17242 20.9074 4.09245 20.9442 4.00436C20.9809 3.91628 20.9999 3.82181 21 3.72637C21.0002 3.63094 20.9815 3.53641 20.945 3.44821C20.9086 3.36001 20.8551 3.27987 20.7876 3.21239C20.7201 3.14491 20.6399 3.09141 20.5517 3.05497C20.4635 3.01852 20.369 2.99984 20.2736 3C20.1781 3.00016 20.0837 3.01915 19.9956 3.05589C19.9075 3.09264 19.8275 3.1464 19.7603 3.2141L14.8363 8.13834V3.72688C14.8359 3.53474 14.7593 3.35059 14.6234 3.21484C14.4874 3.0791 14.3031 3.00286 14.1109 3.00286C13.9188 3.00286 13.7345 3.0791 13.5985 3.21484C13.4625 3.35059 13.3859 3.53474 13.3856 3.72688V9.89174C13.3856 9.98699 13.4043 10.0813 13.4408 10.1693C13.4772 10.2573 13.5307 10.3373 13.598 10.4046C13.6654 10.472 13.7453 10.5254 13.8333 10.5618C13.9214 10.5983 14.0157 10.617 14.1109 10.617L20.2731 10.617C20.3684 10.617 20.4627 10.5983 20.5507 10.5618C20.6387 10.5254 20.7187 10.472 20.786 10.4046C20.8534 10.3373 20.9068 10.2573 20.9433 10.1693C20.9797 10.0813 20.9985 9.98699 20.9985 9.89174Z"/>
</svg>