<svg width="66" height="66" viewBox="0 0 256 256" xmlns="http://www.w3.org/2000/svg">
    <path d="M 2.571 30 l 84.859 0 C 81.254 12.534 64.611 0.015 45.034 0 l -0.068 0 C 25.389 0.015 8.745 12.534 2.571 30 z"
          style="fill: rgb(243,244,245)"/>
    <path d="M 87.429 60 L 2.571 60 C 8.75 77.476 25.408 90 45 90 S 81.25 77.476 87.429 60 z"
          style="fill: rgb(213,43,30)"/>
    <path d="M 87.429 60 C 89.088 55.307 90 50.261 90 45 c 0 -5.261 -0.911 -10.307 -2.571 -15 L 2.571 30 C 0.911 34.693 0 39.739 0 45 c 0 5.261 0.912 10.308 2.571 15 L 87.429 60 z"
          style="fill: rgb(0,57,166)"/>
</svg>