<svg xmlns="http://www.w3.org/2000/svg" width="20" height="20" viewBox="0 0 24 24">
    <path d="M19.6553 13.9721C21.0648 15.0499 22 16.592 22 18.3529V19.5C22 20.4665 21.2165 21.25 20.25 21.25H19C18.5858 21.25 18.25 20.9142 18.25 20.5C18.25 20.0858 18.5858 19.75 19 19.75H20.25C20.3881 19.75 20.5 19.6381 20.5 19.5V18.3529C20.5 17.1575 19.8682 16.0232 18.7442 15.1636C18.2583 14.7921 17.6864 14.4778 17.0496 14.2406C16.7286 14.121 16.5 13.8238 16.5 13.4812C16.5 12.9854 16.9641 12.6184 17.4316 12.7835C18.2574 13.0751 19.0094 13.4781 19.6553 13.9721Z"/>
    <path d="M16.0528 3.4534C17.7627 4.00346 19 5.60724 19 7.5C19 9.39276 17.7627 10.9965 16.0528 11.5466C15.6152 11.6874 15.212 11.324 15.212 10.8644C15.212 10.4873 15.4906 10.176 15.8369 10.0268C16.8152 9.6055 17.5 8.63273 17.5 7.5C17.5 6.36727 16.8152 5.39449 15.8369 4.97315C15.4906 4.82399 15.212 4.51267 15.212 4.13563C15.212 3.67597 15.6152 3.31263 16.0528 3.4534Z"/>
    <path d="M10.25 4.75C8.73122 4.75 7.5 5.98122 7.5 7.5C7.5 9.01878 8.73122 10.25 10.25 10.25C11.7688 10.25 13 9.01878 13 7.5C13 5.98122 11.7688 4.75 10.25 4.75ZM6 7.5C6 5.15279 7.90279 3.25 10.25 3.25C12.5972 3.25 14.5 5.15279 14.5 7.5C14.5 9.84721 12.5972 11.75 10.25 11.75C7.90279 11.75 6 9.84721 6 7.5Z"/>
    <path d="M5.25584 15.1636C4.13177 16.0232 3.5 17.1575 3.5 18.3529V19.5C3.5 19.6381 3.61193 19.75 3.75 19.75H15.75C15.8881 19.75 16 19.6381 16 19.5V18.3529C16 17.1575 15.3682 16.0232 14.2442 15.1636C13.1194 14.3035 11.533 13.75 9.75 13.75C7.96703 13.75 6.3806 14.3035 5.25584 15.1636ZM4.34466 13.9721C5.7534 12.8948 7.66697 12.25 9.75 12.25C11.833 12.25 13.7466 12.8948 15.1553 13.9721C16.5648 15.0499 17.5 16.592 17.5 18.3529V19.5C17.5 20.4665 16.7165 21.25 15.75 21.25H3.75C2.7835 21.25 2 20.4665 2 19.5V18.3529C2 16.592 2.93523 15.0499 4.34466 13.9721Z"/>
</svg>