<svg xmlns="http://www.w3.org/2000/svg" width="24" height="24" viewBox="0 0 24 24">
    <path d="M15.9665 3.04172C15.9369 3.04911 15.8935 3.0648 15.8695 3.07588C15.8455 3.08788 14.5781 3.82634 13.0532 4.71711C10.4391 6.2448 10.2766 6.3408 10.2074 6.40542C10.02 6.5808 9.91384 6.83095 9.91384 7.09311C9.91384 7.20942 9.9323 7.29711 9.97292 7.38018C10.0117 7.45957 10.056 7.51218 10.1141 7.54911C10.1391 7.5648 10.4446 7.69772 10.7945 7.84542C11.1434 7.99218 11.4323 8.11495 11.4351 8.11865C11.4378 8.12142 11.4268 8.13895 11.4111 8.15926C11.2348 8.37895 10.9634 8.77403 10.7612 9.10634C9.93784 10.4614 9.26676 12.1479 8.84768 13.9202C8.7683 14.2553 8.64738 14.8331 8.64738 14.8783C8.64738 14.8903 8.66584 14.9245 8.68984 14.955L8.73322 15.0103L8.65292 15.123C8.42584 15.4414 8.18953 15.7165 7.93753 15.9574C7.82676 16.0636 7.81938 16.0673 7.66799 16.0802C7.45107 16.0986 7.15568 16.0396 6.94615 15.9353C6.38584 15.6556 6.28153 15.111 6.64615 14.3688C6.71353 14.2303 6.81599 14.0577 6.9083 13.9266C6.98307 13.8205 6.99876 13.7799 7.03384 13.6146C7.05784 13.4983 7.05784 13.3996 7.03384 13.359C7.02368 13.3433 7.00984 13.3294 7.00338 13.3294C6.99599 13.3294 6.97753 13.323 6.96184 13.3156C6.92492 13.2971 6.88153 13.311 6.80122 13.3682C6.72276 13.4245 6.5003 13.6543 6.4163 13.767C6.26215 13.9719 6.08676 14.2913 5.98153 14.558C5.65476 15.3879 5.63722 16.1402 5.9363 16.5805C5.95661 16.61 5.9723 16.6359 5.9723 16.6386C5.9723 16.6608 5.56338 16.4688 5.42584 16.382C5.00953 16.119 4.75661 15.7626 4.67261 15.3223C4.62645 15.0851 4.62276 14.7556 4.66153 14.4648C4.79168 13.4891 5.31599 12.1617 6.34153 10.2094C6.45507 9.99342 6.5843 9.74234 6.62768 9.65095C7.17968 8.50819 7.36061 7.56572 7.15199 6.91495C7.01168 6.47557 6.69045 6.18665 6.29168 6.13865C6.10245 6.11649 5.91045 6.17095 5.81445 6.27526C5.75722 6.33711 5.73045 6.40357 5.73045 6.48295C5.73045 6.57526 5.75445 6.64265 5.83753 6.78388C5.99261 7.04695 6.07015 7.27311 6.1163 7.59249C6.13661 7.73003 6.13938 8.11311 6.12184 8.27095C6.00276 9.32603 5.50615 10.5694 4.43538 12.494C4.19168 12.9316 4.11322 13.0811 4.02184 13.2786C3.78922 13.7826 3.64799 14.2396 3.59445 14.6633C3.57599 14.8082 3.57415 15.1063 3.58984 15.2328C3.68676 16.0026 4.12522 16.5426 5.03999 17.0199C5.18953 17.0983 5.50245 17.2442 5.61968 17.2903C6.19938 17.5211 6.86768 17.4722 7.54153 17.15C7.68368 17.0826 7.68645 17.0854 7.55815 17.1648C7.39568 17.2663 7.19076 17.3605 7.03476 17.4057C6.88522 17.4491 6.81784 17.4546 6.45692 17.4491C6.18276 17.4445 6.10153 17.4463 5.99261 17.4593C5.70738 17.4925 5.51076 17.57 5.43968 17.678C5.40553 17.7306 5.39907 17.8137 5.42584 17.8746C5.44892 17.9263 5.52553 18.0094 5.59384 18.0556C5.9243 18.2799 6.48553 18.35 7.03753 18.2346C7.17968 18.2042 7.39568 18.134 7.57568 18.0593C7.77784 17.9753 8.11753 17.8036 8.31045 17.6882C8.33999 17.6706 8.36584 17.6586 8.36861 17.6605C8.37322 17.666 8.04092 17.9845 7.89599 18.1119C7.73722 18.2522 7.6163 18.3491 7.4123 18.4986C6.83538 18.9214 6.54276 19.1845 6.46615 19.3488C6.4283 19.431 6.43938 19.4734 6.50676 19.5066C6.54645 19.526 6.56122 19.5279 6.71076 19.5279C6.84276 19.527 6.89907 19.5223 7.01999 19.502C7.18245 19.4743 7.47692 19.4097 7.67076 19.3608C7.97722 19.2823 8.26892 19.13 8.71384 18.8171L8.76461 18.7811L8.73599 18.8134C8.72122 18.831 8.63538 18.9233 8.54676 19.0202C8.13322 19.4688 7.91907 19.7346 7.83507 19.9017C7.80184 19.9682 7.79261 20.0273 7.81107 20.0522C7.85722 20.114 8.06399 20.0513 8.4443 19.8593C8.79045 19.6839 8.92338 19.5842 9.26584 19.238L9.48184 19.0211L9.47445 19.0765C9.47076 19.106 9.46799 19.2639 9.46799 19.4263C9.46707 19.8196 9.48276 19.9534 9.55938 20.2128C9.68676 20.6476 9.80584 20.9125 9.88245 20.9319C9.98492 20.9577 10.0588 20.6808 10.1031 20.1002C10.1169 19.9165 10.1345 19.6202 10.1363 19.5473C10.1363 19.526 10.1465 19.5648 10.1585 19.6386C10.2138 19.982 10.2858 20.2451 10.3791 20.4417C10.4677 20.63 10.7206 21.0574 10.8277 21.2005C11.0557 21.507 11.1766 21.5125 11.2255 21.2171C11.2421 21.1146 11.2403 20.7454 11.2209 20.5211C11.2126 20.4223 11.1932 20.2285 11.1785 20.09C11.1637 19.9516 11.1461 19.7374 11.1406 19.6137C11.1295 19.371 11.1369 18.8143 11.1517 18.7986C11.1572 18.794 11.16 18.7968 11.16 18.807C11.16 18.8356 11.3308 19.3377 11.3908 19.4863C11.4692 19.6793 11.5468 19.8473 11.6141 19.97C11.9123 20.5119 12.4015 20.9688 12.8723 21.1433C13.2129 21.2697 13.4492 21.2153 13.4492 21.0094C13.4492 20.858 13.3181 20.6319 13.0883 20.3873L13.0117 20.3051L13.0985 20.3716C13.2803 20.511 13.4326 20.5913 13.7308 20.7048C14.22 20.8913 14.6021 20.9937 14.9345 21.0279C15.0581 21.0399 15.2991 21.0399 15.4135 21.027C16.2923 20.93 16.9652 20.2783 17.4498 19.0543C17.5449 18.8153 17.6151 18.6048 17.7286 18.2217C18.1569 16.7799 18.4911 15.8799 18.8954 15.0786C19.3772 14.1242 19.8812 13.5408 20.46 13.2639C20.5985 13.1983 20.6991 13.1623 20.8763 13.1171C21.0314 13.0783 21.0932 13.0506 21.1541 12.9943C21.216 12.938 21.2418 12.879 21.2474 12.7885C21.2538 12.6703 21.2234 12.5845 21.132 12.4636C20.9603 12.2383 20.6178 12.1026 20.3058 12.1368C19.6837 12.2051 19.1095 12.7433 18.6268 13.7088C18.4163 14.1306 18.324 14.3697 18.0415 15.2263C17.9363 15.5457 17.8052 15.9343 17.7508 16.0894C16.8711 18.5799 16.0975 19.7974 15.2049 20.0956C15.0268 20.1556 14.9012 20.1722 14.6861 20.1666C14.5791 20.1639 14.4729 20.1556 14.4249 20.1473C14.0935 20.0854 13.7345 19.9396 13.5406 19.79C13.4778 19.7411 13.4095 19.6793 13.4141 19.6765C13.4151 19.6746 13.4474 19.6774 13.4852 19.683C13.6781 19.7097 13.9449 19.635 14.1618 19.4928C14.6455 19.178 15.12 18.4396 15.3369 17.6633C15.4061 17.415 15.432 17.2506 15.4403 17.0079C15.4495 16.7199 15.4181 16.6146 15.3305 16.6451C15.276 16.6645 15.1495 16.826 15.0757 16.971C15.06 17.0033 15.0415 17.0614 15.0323 17.1094C14.9271 17.6753 14.6815 18.1811 14.4046 18.4026C14.2615 18.518 14.1268 18.5716 13.9597 18.579C13.7825 18.5882 13.6283 18.5513 13.4381 18.4543C13.1677 18.3168 12.9895 18.1506 12.8843 17.9383L12.8446 17.858L12.8455 17.7325C12.8474 17.5977 12.8677 17.366 12.8963 17.175C12.9138 17.055 12.96 16.7882 12.9646 16.7836C12.9655 16.7826 12.9886 16.7753 13.0154 16.7688C13.0717 16.754 13.0578 16.7706 13.2175 16.538C14.3289 14.919 15.168 13.179 15.6489 11.4971C15.7837 11.0254 15.8981 10.5085 15.9471 10.1466C15.9572 10.071 15.9674 10.0257 15.9729 10.0276C15.9785 10.0303 16.2591 10.1485 16.5969 10.2906C16.9348 10.4328 17.2274 10.5537 17.2477 10.5611C17.268 10.5676 17.3178 10.5731 17.3585 10.5722C17.4923 10.5703 17.6132 10.5113 17.7425 10.3848C17.8634 10.2666 17.9428 10.1319 17.9963 9.95465C18.0194 9.87988 18.0221 9.85865 18.0221 9.7248V9.57711L17.2449 6.47372C16.8175 4.76695 16.4575 3.34357 16.4455 3.31034C16.4012 3.19403 16.3071 3.09157 16.2111 3.05557C16.1437 3.02972 16.0375 3.02419 15.9665 3.04172ZM12.0775 18.4534C12.1052 18.5005 12.1145 18.53 12.1301 18.6177C12.2215 19.1605 12.4301 19.6423 12.7366 20.0208L12.816 20.1186L12.7191 20.0337C12.5917 19.923 12.5105 19.8343 12.4412 19.7319C12.2788 19.4882 12.1606 19.1577 12.0877 18.7368C12.0665 18.6159 12.0369 18.3971 12.0425 18.3971C12.0434 18.3971 12.0591 18.423 12.0775 18.4534Z"/>
</svg>