<svg xmlns="http://www.w3.org/2000/svg" viewBox="0 0 256 256" width="24" height="24" fill="currentColor">
    <path d="M126.7,15.4c-0.4,0.4-0.6,6.5-0.6,24.1c0,12.9,0.1,23.5,0.2,23.5s1.9-0.8,3.9-1.7c6.9-3.1,14.9-5.6,22.6-6.9l1.8-0.3v-19c0-14.2-0.1-19.2-0.6-19.7C153.2,14.6,127.5,14.6,126.7,15.4z"/>
    <path d="M88.2,47.8c-1,1-1,1.6-1,29.1v28.2l3.1-5.8c5.6-10.6,12.9-19.6,21.6-26.5l4.4-3.5V59.1c0-9.6,0-10.3-1-11.3c-0.9-0.9-1.6-1-13.5-1C89.9,46.8,89.2,46.9,88.2,47.8z"/>
    <path d="M161.1,58.5c-21.1,1.5-37.3,8.9-52,23.5c-11.7,11.7-19,25-22.1,40.5c-1,5-0.8,6,1.3,6.6c2,0.6,75.3,6.8,76.1,6.4c0.6-0.4,43.6-61.5,44.1-62.7c0.6-1.6-0.7-2.8-6-5.5c-6.9-3.5-11.8-5.3-18.8-6.9c-4.8-1.1-17.3-2.5-19.6-2.2C163.6,58.3,162.3,58.4,161.1,58.5z"/>
    <path d="M213.1,75.9c-1.2,1-42.4,60.1-42.6,61.2c-0.1,0.5,0.1,1.3,0.4,1.8c1,1.3,60.1,42.4,61.2,42.7c3.3,0.6,11-17.7,12.9-30.7c2.5-17.3-0.6-35.6-8.5-50.1c-4.5-8.3-12.8-18.5-19.1-23.6C214.9,75.2,214.3,75,213.1,75.9z"/>
    <path d="M10.8,80.1c-0.7,0.7-0.8,5.7-0.8,47.2c0,45.8,0,46.4,1,47.4c0.9,0.9,1.6,1,13.5,1s12.6-0.1,13.5-1c1-1,1-1.6,1-47.1c0-40.9-0.1-46.3-0.8-47.2c-0.7-1.1-0.9-1.1-13.7-1.1C13.4,79.3,11.4,79.4,10.8,80.1z"/>
    <path d="M50,95.8l-1.1,0.7v38.8v38.8l1.1,0.7c1.6,1.2,24.7,1.2,26.4,0l1.1-0.7v-38.8V96.6l-1.1-0.7c-0.9-0.6-3.1-0.8-13.2-0.8C53,95,50.9,95.2,50,95.8z"/>
    <path d="M86.3,135.2c-1.1,0.8-1.1,1-0.8,7.2c1.2,27.8,17.5,53.7,42.2,67.1c8.1,4.4,19,7.8,28.7,9c7.5,1,6.7,5.6,6.7-38.5c0-36.7,0-37.3-1-38.3c-0.5-0.5-1.6-1-2.3-1c-1.5,0-68.4-5.8-70.8-6.1C88,134.5,86.9,134.8,86.3,135.2z"/>
    <path d="M179.9,169.1l-1.1,0.7v34.9c0,38.9-0.2,36.4,3.4,36.4c3.2,0,12.9-1.9,18-3.4c7.4-2.4,17.8-7.7,23.8-12.2c6.4-4.9,15.3-13.9,15.3-15.6c0-1.5,1.2-0.6-29.9-22.3c-23.6-16.5-27.6-19.3-28.2-19.3C181.1,168.4,180.4,168.7,179.9,169.1z"/>
</svg>